<svg xmlns="http://www.w3.org/2000/svg" viewBox="-0.9235 -0.9235 1.847 1.847" width="1.847" height="1.847">
<g fill="param(fill) #000000" fill-opacity="0.25" stroke="none">
<path d="M-0.0002 0 L0.2 -0.0564 L0.2 -0.0564 L0.2498 -0.87 L0.2498 -0.87 L0.2498 0 L0.2498 0 L-0.0002 0 Z"/>
</g>
<g fill="none" stroke="param(outline) #000000" stroke-width="param(outline-width) 0.0277" stroke-linecap="round" stroke-linejoin="round">
<path d="M-0.0002 0 L-0.0002 -0.87 L0.2498 -0.87 L0.2498 0 Z"/>
<path d="M0.1942 -0.2668 L0.194 -0.3014"/>
<path d="M0.1942 -0.3014 L0.1936 -0.3074 L0.192 -0.3132 L0.1894 -0.3186 L0.1859 -0.3236 L0.1817 -0.3278 L0.1767 -0.3313 L0.1712 -0.3338 L0.1654 -0.3354 L0.1594 -0.336 L0.0754 -0.336 L0.0754 -0.2866 L0.0758 -0.2817 L0.077 -0.2769 L0.0789 -0.2725 L0.0816 -0.2684 L0.0849 -0.2647 L0.0888 -0.2617 L0.0931 -0.2594 L0.0977 -0.2578 L0.1025 -0.257 L0.1074 -0.257 L0.1123 -0.2578 L0.1169 -0.2594 L0.1212 -0.2617 L0.1251 -0.2647 L0.1284 -0.2684 L0.131 -0.2725 L0.133 -0.2769 L0.1342 -0.2817 L0.1346 -0.2866"/>
<path d="M0.1348 -0.336 L0.1348 -0.2866"/>
<path d="M0.0754 -0.4746 L0.0754 -0.4252 L0.0759 -0.4201 L0.0772 -0.4151 L0.0794 -0.4104 L0.0824 -0.4062 L0.086 -0.4025 L0.0902 -0.3995 L0.0949 -0.3973 L0.0999 -0.3959 L0.105 -0.3954 L0.1546 -0.3954 L0.1615 -0.396 L0.1682 -0.3978 L0.1744 -0.4007 L0.1801 -0.4047 L0.185 -0.4095 L0.1889 -0.4152 L0.1918 -0.4215 L0.1936 -0.4281 L0.1942 -0.435 L0.1936 -0.4419 L0.1918 -0.4485 L0.1889 -0.4548 L0.185 -0.4605 L0.1801 -0.4653 L0.1744 -0.4693 L0.1682 -0.4722 L0.1615 -0.474 L0.1546 -0.4746 L0.1348 -0.4746 L0.1348 -0.3954"/>
<path d="M0.016 -0.534 L0.1942 -0.534 L0.1942 -0.5784 L0.1937 -0.5845 L0.1921 -0.5903 L0.1895 -0.5958 L0.186 -0.6008 L0.1817 -0.6051 L0.1768 -0.6085 L0.1713 -0.6111 L0.1654 -0.6127 L0.1594 -0.6133 L0.11 -0.6133 L0.104 -0.6126 L0.0982 -0.611 L0.0928 -0.6084 L0.0878 -0.6049 L0.0836 -0.6006 L0.0801 -0.5957 L0.0776 -0.5902 L0.076 -0.5844 L0.0754 -0.5784 L0.0754 -0.534"/>
</g>
</svg>
