<svg xmlns="http://www.w3.org/2000/svg" viewBox="-0.8514 -0.8514 1.7027 1.7027" width="1.7027" height="1.7027">
<g fill="param(fill) #000000" fill-opacity="0.25" stroke="none">
<path d="M0 0 L-0.6 0 L-0.6 0 L-0.6 -0.8013 L-0.6 -0.8013 L-0.4875 -0.1502 L-0.4875 -0.1502 L0 0 Z"/>
</g>
<g fill="none" stroke="param(outline) #000000" stroke-width="param(outline-width) 0.0255" stroke-linecap="round" stroke-linejoin="round">
<path d="M0 0 L-0.6 0"/>
<path d="M-0.6 0 L-0.6 -0.8013"/>
<path d="M0 -0.8013 L0 0"/>
<path d="M0 -0.8013 L-0.6 -0.8013"/>
<path d="M-0.2567 -0.5663 L-0.2694 -0.5652 L-0.2817 -0.562 L-0.2933 -0.5567 L-0.3038 -0.5496 L-0.313 -0.5408 L-0.3206 -0.5306 L-0.3263 -0.5192 L-0.33 -0.5071 L-0.3316 -0.4944 L-0.3311 -0.4817 L-0.3284 -0.4693 L-0.3237 -0.4575 L-0.317 -0.4467 L-0.3086 -0.4371 L-0.2987 -0.4291 L-0.2876 -0.4229 L-0.2756 -0.4187 L-0.2631 -0.4165 L-0.2503 -0.4165 L-0.2378 -0.4187 L-0.2258 -0.4229 L-0.2147 -0.4291 L-0.2048 -0.4371 L-0.1964 -0.4467 L-0.1897 -0.4575 L-0.185 -0.4693 L-0.1823 -0.4817 L-0.1818 -0.4944 L-0.1834 -0.5071 L-0.1871 -0.5192 L-0.1928 -0.5306 L-0.2004 -0.5408 L-0.2096 -0.5496 L-0.2201 -0.5567 L-0.2317 -0.562 L-0.244 -0.5652 Z"/>
<path d="M-0.2567 -0.4163 L-0.2694 -0.4152 L-0.2817 -0.412 L-0.2933 -0.4067 L-0.3038 -0.3996 L-0.313 -0.3908 L-0.3206 -0.3806 L-0.3263 -0.3692 L-0.33 -0.3571 L-0.3316 -0.3444 L-0.3311 -0.3317 L-0.3284 -0.3193 L-0.3237 -0.3075 L-0.317 -0.2967 L-0.3086 -0.2871 L-0.2987 -0.2791 L-0.2876 -0.2729 L-0.2756 -0.2687 L-0.2631 -0.2665 L-0.2503 -0.2665 L-0.2378 -0.2687 L-0.2258 -0.2729 L-0.2147 -0.2791 L-0.2048 -0.2871 L-0.1964 -0.2967 L-0.1897 -0.3075 L-0.185 -0.3193 L-0.1823 -0.3317 L-0.1818 -0.3444 L-0.1834 -0.3571 L-0.1871 -0.3692 L-0.1928 -0.3806 L-0.2004 -0.3908 L-0.2096 -0.3996 L-0.2201 -0.4067 L-0.2317 -0.412 L-0.244 -0.4152 Z"/>
<path d="M-0.3866 -0.4913 L-0.3993 -0.4902 L-0.4116 -0.487 L-0.4232 -0.4817 L-0.4337 -0.4746 L-0.4429 -0.4658 L-0.4505 -0.4556 L-0.4562 -0.4442 L-0.4599 -0.4321 L-0.4615 -0.4194 L-0.461 -0.4067 L-0.4583 -0.3943 L-0.4536 -0.3825 L-0.4469 -0.3717 L-0.4385 -0.3621 L-0.4286 -0.3541 L-0.4175 -0.3479 L-0.4055 -0.3437 L-0.393 -0.3415 L-0.3802 -0.3415 L-0.3677 -0.3437 L-0.3557 -0.3479 L-0.3446 -0.3541 L-0.3347 -0.3621 L-0.3263 -0.3717 L-0.3196 -0.3825 L-0.3149 -0.3943 L-0.3122 -0.4067 L-0.3117 -0.4194 L-0.3133 -0.4321 L-0.317 -0.4442 L-0.3227 -0.4556 L-0.3303 -0.4658 L-0.3395 -0.4746 L-0.35 -0.4817 L-0.3616 -0.487 L-0.3739 -0.4902 Z"/>
<path d="M0 0 L-0.6 0 L-0.6 -0.8013 L-0.4875 -0.1502 Z"/>
</g>
</svg>
