<svg xmlns="http://www.w3.org/2000/svg" viewBox="-0.1675 -0.1675 0.335 0.335" width="0.335" height="0.335">
<g fill="none" stroke="param(outline) #000000" stroke-width="param(outline-width) 0.005" stroke-linecap="round" stroke-linejoin="round">
<path d="M0 -0.15 L0.0254 -0.1478 L0.05 -0.1414 L0.0732 -0.131 L0.0942 -0.1167 L0.1126 -0.0991 L0.1277 -0.0786 L0.1392 -0.0559 L0.1466 -0.0316 L0.1499 -0.0064 L0.1488 0.0191 L0.1434 0.0439 L0.1339 0.0675 L0.1206 0.0892 L0.1038 0.1083 L0.084 0.1243 L0.0618 0.1367 L0.0378 0.1452 L0.0127 0.1495 L-0.0127 0.1495 L-0.0378 0.1452 L-0.0618 0.1367 L-0.084 0.1243 L-0.1038 0.1083 L-0.1206 0.0892 L-0.1339 0.0675 L-0.1434 0.0439 L-0.1488 0.0191 L-0.1499 -0.0064 L-0.1466 -0.0316 L-0.1392 -0.0559 L-0.1277 -0.0786 L-0.1126 -0.0991 L-0.0942 -0.1167 L-0.0732 -0.131 L-0.05 -0.1414 L-0.0254 -0.1478 Z"/>
</g>
</svg>
