<svg xmlns="http://www.w3.org/2000/svg" viewBox="-0.4825 -0.4825 0.9651 0.9651" width="0.9651" height="0.9651">
<g fill="none" stroke="param(outline) #000000" stroke-width="param(outline-width) 0.0145" stroke-linecap="round" stroke-linejoin="round">
<path d="M-0.45 0.2599 L-0.45 -0.2597 L0 0 Z"/>
<path d="M-0.3662 0.1352 L-0.366 0.1072"/>
<path d="M-0.3662 0.1072 L-0.3657 0.1023 L-0.3644 0.0976 L-0.3623 0.0932 L-0.3595 0.0892 L-0.356 0.0858 L-0.352 0.083 L-0.3476 0.0809 L-0.3429 0.0796 L-0.338 0.0792 L-0.27 0.0792 L-0.27 0.1192 L-0.2703 0.1231 L-0.2712 0.127 L-0.2728 0.1306 L-0.275 0.1339 L-0.2777 0.1369 L-0.2808 0.1393 L-0.2843 0.1412 L-0.288 0.1425 L-0.292 0.1431 L-0.2959 0.1431 L-0.2998 0.1425 L-0.3036 0.1412 L-0.3071 0.1393 L-0.3102 0.1369 L-0.3129 0.1339 L-0.315 0.1306 L-0.3166 0.127 L-0.3176 0.1231 L-0.3179 0.1192"/>
<path d="M-0.3181 0.0792 L-0.3181 0.1192"/>
<path d="M-0.27 -0.0331 L-0.27 0.0069 L-0.2703 0.0111 L-0.2714 0.0151 L-0.2732 0.0189 L-0.2756 0.0223 L-0.2785 0.0253 L-0.282 0.0277 L-0.2857 0.0295 L-0.2898 0.0306 L-0.2939 0.031 L-0.3341 0.031 L-0.3397 0.0306 L-0.3451 0.0291 L-0.3502 0.0267 L-0.3548 0.0235 L-0.3587 0.0196 L-0.3619 0.015 L-0.3643 0.0099 L-0.3657 0.0045 L-0.3662 -0.001 L-0.3657 -0.0066 L-0.3643 -0.012 L-0.3619 -0.0171 L-0.3587 -0.0217 L-0.3548 -0.0256 L-0.3502 -0.0288 L-0.3451 -0.0312 L-0.3397 -0.0326 L-0.3341 -0.0331 L-0.3181 -0.0331 L-0.3181 0.031"/>
<path d="M-0.2218 -0.0813 L-0.3662 -0.0813 L-0.3662 -0.1172 L-0.3658 -0.1221 L-0.3645 -0.1268 L-0.3624 -0.1313 L-0.3596 -0.1353 L-0.3561 -0.1388 L-0.3521 -0.1416 L-0.3476 -0.1437 L-0.3429 -0.145 L-0.338 -0.1454 L-0.298 -0.1454 L-0.2931 -0.1449 L-0.2884 -0.1436 L-0.284 -0.1415 L-0.28 -0.1387 L-0.2766 -0.1352 L-0.2738 -0.1312 L-0.2717 -0.1268 L-0.2704 -0.1221 L-0.27 -0.1172 L-0.27 -0.0813"/>
</g>
</svg>
